<svg width="32" height="32" viewBox="0 0 32 32" fill="none" xmlns="http://www.w3.org/2000/svg">
<g clip-path="url(#clip0_265_838)">
<path d="M10.7844 24.494C10.7763 24.454 10.7644 24.4146 10.7487 24.3765C10.7331 24.339 10.7137 24.3028 10.6912 24.269C10.6687 24.2346 10.6425 24.2028 10.6138 24.174C10.585 24.1453 10.5531 24.119 10.5188 24.0965C10.485 24.074 10.4488 24.0546 10.4106 24.039C10.3731 24.0234 10.3337 24.0109 10.2937 24.0034C10.2131 23.9871 10.13 23.9871 10.05 24.0034C10.01 24.0109 9.97062 24.0234 9.9325 24.039C9.895 24.0546 9.85875 24.074 9.825 24.0965C9.79062 24.119 9.75875 24.1453 9.73 24.174C9.70125 24.2028 9.675 24.2346 9.6525 24.269C9.62938 24.3028 9.61063 24.339 9.595 24.3765C9.57938 24.4146 9.56687 24.454 9.55937 24.494C9.55125 24.534 9.54688 24.5753 9.54688 24.6159C9.54688 24.6565 9.55125 24.6978 9.55937 24.7378C9.56687 24.7778 9.57938 24.8171 9.595 24.8546C9.61063 24.8928 9.62938 24.929 9.6525 24.9628C9.675 24.9971 9.70125 25.029 9.73 25.0578C9.75875 25.0865 9.79062 25.1128 9.825 25.1353C9.85875 25.1578 9.895 25.1772 9.9325 25.1928C9.97062 25.2085 10.01 25.221 10.05 25.2285C10.09 25.2366 10.1313 25.241 10.1719 25.241C10.2125 25.241 10.2537 25.2366 10.2937 25.2285C10.3337 25.221 10.3731 25.2085 10.4106 25.1928C10.4488 25.1772 10.485 25.1578 10.5188 25.1353C10.5531 25.1128 10.585 25.0865 10.6138 25.0578C10.6425 25.029 10.6687 24.9971 10.6912 24.9628C10.7137 24.929 10.7331 24.8928 10.7487 24.8546C10.7644 24.8171 10.7763 24.7778 10.7844 24.7378C10.7925 24.6978 10.7969 24.6565 10.7969 24.6159C10.7969 24.5753 10.7925 24.534 10.7844 24.494Z" fill="black"/>
<path d="M28.7496 24.6864C28.7471 24.6801 28.7446 24.6739 28.742 24.6678C28.1667 23.3217 26.8176 22.8242 25.221 23.3696L20.8668 24.5737C20.615 23.8113 19.9871 23.1626 19.0992 22.8331C19.0937 22.8311 19.0882 22.8291 19.0826 22.8272L14.2963 21.2027C13.8979 20.6877 12.6501 19.3701 10.3136 19.3701C8.68081 19.3701 7.23637 20.4902 6.41 21.7112H0.625C0.279813 21.7112 0 21.991 0 22.3362V30.216C0 30.5612 0.279813 30.841 0.625 30.841H4.34106C4.68625 30.841 4.96606 30.5612 4.96606 30.216V29.6764H6.70875C7.05394 29.6764 7.33375 29.3966 7.33375 29.0514V28.8715C8.34962 28.9601 8.68375 29.1528 9.61675 29.6908C10.3342 30.1046 11.4187 30.7299 13.3716 31.6079C13.3806 31.612 13.3898 31.6159 13.399 31.6195C13.7738 31.7669 14.5065 31.9986 15.4098 31.9986C16.0386 31.9986 16.7501 31.8862 17.4805 31.5552L27.1049 28.1092C27.1221 28.1031 27.1389 28.0962 27.1554 28.0886C28.0753 27.6654 29.4459 26.4727 28.7496 24.6864ZM3.71606 29.5909H1.25V22.9611H3.71606V29.5909ZM6.08375 28.4263H4.96606V22.9611H6.08375V28.4263ZM26.656 26.9421L17.0359 30.3866C17.0274 30.3896 17.016 30.3941 17.0077 30.3974C16.9992 30.4009 16.9908 30.4045 16.9825 30.4083C15.6427 31.0241 14.3691 30.6554 13.87 30.4614C11.9836 29.6126 10.9768 29.032 10.2412 28.6078C9.21844 28.0181 8.72563 27.7338 7.33375 27.6189V22.585C7.92619 21.614 9.07506 20.6201 10.3137 20.6201C12.4378 20.6201 13.3379 22.0016 13.3733 22.0574C13.4496 22.1815 13.5669 22.2751 13.7048 22.3219L18.672 24.0077C19.4653 24.3055 19.8846 24.9849 19.6919 25.6624C19.6029 25.9752 19.3974 26.2347 19.1133 26.3931C18.8316 26.55 18.506 26.5888 18.1956 26.5029L12.5961 24.7284C12.2668 24.6241 11.9157 24.8064 11.8114 25.1354C11.7071 25.4645 11.8894 25.8157 12.2184 25.9201L17.8277 27.6976C17.8337 27.6995 17.8396 27.7013 17.8456 27.703C18.0696 27.7667 18.2976 27.7982 18.5242 27.7982C18.9391 27.7982 19.3494 27.6925 19.7218 27.485C20.2976 27.1642 20.7139 26.6383 20.8942 26.0042C20.9086 25.9536 20.9213 25.903 20.9324 25.8524L25.6251 24.5524C26.3028 24.3209 27.1925 24.2374 27.5886 25.1497C27.9986 26.2208 26.933 26.81 26.656 26.9421Z" fill="black"/>
<path d="M22.4412 8.22156C22.4331 8.18156 22.4213 8.14219 22.405 8.10406C22.3894 8.06656 22.3706 8.03031 22.3475 7.99656C22.325 7.96219 22.2988 7.93031 22.27 7.90156C22.2413 7.87281 22.2094 7.84656 22.175 7.82406C22.1412 7.80156 22.105 7.78219 22.0675 7.76656C22.0294 7.75094 21.99 7.73844 21.9506 7.73094C21.87 7.71469 21.7869 7.71469 21.7062 7.73094C21.6662 7.73844 21.6269 7.75094 21.5894 7.76656C21.5512 7.78219 21.515 7.80156 21.4813 7.82406C21.4469 7.84656 21.415 7.87281 21.3862 7.90156C21.3575 7.93031 21.3313 7.96219 21.3088 7.99656C21.2863 8.03031 21.2669 8.06656 21.2512 8.10406C21.2356 8.14219 21.2231 8.18156 21.2156 8.22156C21.2075 8.26156 21.2031 8.30281 21.2031 8.34344C21.2031 8.38406 21.2075 8.42531 21.2156 8.46531C21.2231 8.50531 21.2356 8.54469 21.2512 8.58219C21.2669 8.62031 21.2863 8.65656 21.3088 8.69031C21.3313 8.72469 21.3575 8.75656 21.3862 8.78531C21.415 8.81406 21.4469 8.84031 21.4813 8.86281C21.515 8.88531 21.5512 8.90469 21.5894 8.92031C21.6269 8.93594 21.6662 8.94781 21.7062 8.95594C21.7462 8.96406 21.7875 8.96844 21.8281 8.96844C21.8687 8.96844 21.91 8.96406 21.9506 8.95594C21.99 8.94781 22.0294 8.93594 22.0675 8.92031C22.105 8.90469 22.1412 8.88531 22.175 8.86281C22.2094 8.84031 22.2413 8.81406 22.27 8.78531C22.2988 8.75656 22.325 8.72469 22.3475 8.69031C22.3706 8.65656 22.3894 8.62031 22.405 8.58219C22.4213 8.54469 22.4331 8.50531 22.4412 8.46531C22.4494 8.42531 22.4531 8.38406 22.4531 8.34344C22.4531 8.30281 22.4494 8.26156 22.4412 8.22156Z" fill="black"/>
<path d="M31.375 2.11771H27.659C27.3138 2.11771 27.034 2.39752 27.034 2.74271V3.28234H25.2913C24.9461 3.28234 24.6663 3.56215 24.6663 3.90734V4.08721C23.6504 3.99852 23.3163 3.8059 22.3834 3.2679C21.6659 2.85415 20.5814 2.22884 18.6285 1.35077C18.6194 1.34665 18.6103 1.34284 18.601 1.33921C17.9653 1.08909 16.2992 0.596961 14.5198 1.4034L12.0048 2.3039L9.88485 0.184023C9.64079 -0.0600391 9.24504 -0.0600391 9.00098 0.184023L2.0411 7.14384C1.81598 7.36902 1.77279 7.75946 2.0411 8.02777L13.934 19.9207C14.1244 20.1111 14.57 20.1686 14.818 19.9207L21.172 13.5667C21.3372 13.581 21.5087 13.5886 21.6864 13.5886C23.3192 13.5886 24.7636 12.4685 25.5899 11.2476H31.375C31.7202 11.2476 32 10.9678 32 10.6226V2.74271C32 2.39752 31.7202 2.11771 31.375 2.11771ZM9.44286 1.50984L10.8674 2.93434C10.4439 3.19621 9.95436 3.33634 9.44286 3.33634C8.93129 3.33634 8.44179 3.19627 8.01835 2.93434L9.44286 1.50984ZM4.79148 9.01034L3.36698 7.58577L4.79148 6.16127C5.05335 6.58471 5.19348 7.07427 5.19348 7.58577C5.19348 8.09727 5.05342 8.58684 4.79148 9.01034ZM14.376 18.5948L12.9518 17.1706C13.8214 16.634 14.9306 16.634 15.8002 17.1706L14.376 18.5948ZM16.7007 16.2702C15.3196 15.2683 13.4325 15.2683 12.0514 16.2702L5.69192 9.91071C6.17998 9.23946 6.44348 8.43315 6.44348 7.58577C6.44348 6.73834 6.18004 5.93209 5.69192 5.26084L7.11798 3.83484C7.78923 4.3229 8.59548 4.5864 9.44292 4.5864C10.2904 4.5864 11.0966 4.3229 11.7679 3.83484L13.1197 5.18665C12.828 5.22971 12.5435 5.32584 12.2783 5.47365C11.8303 5.72327 11.4788 6.09709 11.2599 6.54934C10.5549 6.6799 9.90223 7.02121 9.39023 7.53315C8.00117 8.92227 8.00117 11.1825 9.39029 12.5716C10.0848 13.2661 10.9971 13.6134 11.9095 13.6134C12.8218 13.6134 13.7342 13.2661 14.4287 12.5716C14.8806 12.1197 15.1972 11.5643 15.3557 10.9591L17.466 11.6753C17.2284 12.7758 17.4717 13.9335 18.128 14.8429L16.7007 16.2702ZM12.9009 10.1256C12.9064 10.1276 12.9119 10.1296 12.9174 10.1315L14.1672 10.5557C14.0728 10.9816 13.8592 11.3733 13.5449 11.6877C12.6431 12.5893 11.1759 12.5895 10.2742 11.6877C9.37248 10.786 9.37248 9.31884 10.2742 8.41709C10.4917 8.19946 10.7484 8.0294 11.0281 7.91409C11.1435 8.87421 11.8348 9.73002 12.9009 10.1256ZM19.0286 13.9423C18.7874 13.5491 18.6509 13.1005 18.6293 12.6425C18.9287 12.859 19.2945 13.071 19.7315 13.2393L19.0286 13.9423ZM24.6662 10.3735C24.0739 11.3446 22.925 12.3385 21.6864 12.3385C21.4546 12.3385 21.2374 12.322 21.0344 12.2926C21.0335 12.2925 21.0327 12.2924 21.0319 12.2923C19.6822 12.0962 18.9561 11.3291 18.7168 11.0253C18.704 11.0066 18.6497 10.9355 18.6417 10.9237C18.5689 10.7936 18.4495 10.689 18.2972 10.6373L13.328 8.95071C12.535 8.65309 12.1158 7.97402 12.3079 7.29677C12.308 7.29634 12.3082 7.2959 12.3083 7.29546C12.3085 7.29496 12.3086 7.2944 12.3087 7.2939C12.398 6.98202 12.6032 6.72334 12.8867 6.5654C13.1683 6.40846 13.4939 6.36952 13.8044 6.45559L19.4039 8.23002C19.733 8.33446 20.0843 8.15209 20.1885 7.82302C20.2928 7.49396 20.1106 7.14271 19.7815 7.0384L15.3281 5.62715L15.2892 5.58827C15.2889 5.5879 15.2885 5.58746 15.288 5.58709L12.9824 3.28146L14.9642 2.57184C14.9709 2.5694 14.9791 2.56634 14.9857 2.56365C14.9874 2.56296 14.9907 2.56171 14.9923 2.56102C15.0008 2.55759 15.0092 2.55396 15.0175 2.55015C16.3572 1.9344 17.6307 2.30296 18.1299 2.49709C20.0164 3.3459 21.0232 3.92646 21.7589 4.35065C22.7816 4.94046 23.2744 5.22465 24.6662 5.33959V10.3735ZM27.034 9.99752H25.9163V4.53234H27.034V9.99752ZM30.75 9.99752H28.284V3.36771H30.75V9.99752Z" fill="black"/>
</g>
<defs>
<clipPath id="clip0_265_838">
<rect width="32" height="32" fill="white"/>
</clipPath>
</defs>
</svg>
