<svg width="32" height="32" viewBox="0 0 32 32" fill="none" xmlns="http://www.w3.org/2000/svg">
<path d="M27.3008 4.69925C24.2704 1.66888 20.2571 0 16 0C13.54 0 11.1729 0.560063 8.96425 1.66463C8.05756 2.11806 7.19044 2.66225 6.37925 3.28338L6.48325 2.97137C6.64694 2.48019 6.3815 1.94925 5.89031 1.7855C5.39931 1.62175 4.86819 1.88725 4.70444 2.37844L3.37862 6.35594C3.13319 7.09225 3.84062 7.7845 4.5645 7.54181L8.542 6.216C9.03319 6.05225 9.29862 5.52131 9.13494 5.03013C8.97375 4.54656 8.45669 4.28275 7.97213 4.43075C10.3112 2.78006 13.0946 1.875 16 1.875C23.7886 1.875 30.125 8.21144 30.125 16C30.125 23.7886 23.7886 30.125 16 30.125C8.21144 30.125 1.875 23.7886 1.875 16C1.875 15.4823 1.45525 15.0625 0.9375 15.0625C0.41975 15.0625 0 15.4823 0 16C0 20.2571 1.66888 24.2704 4.69925 27.3008C7.72956 30.3311 11.7429 32 16 32C20.2571 32 24.2704 30.3311 27.3008 27.3008C30.3311 24.2704 32 20.2571 32 16C32 11.7429 30.3311 7.72956 27.3008 4.69925Z" fill="black"/>
<path d="M23.292 23.2919C27.2996 19.2843 27.3255 12.7413 23.292 8.70781C19.2844 4.70006 12.7413 4.67444 8.70792 8.70781C4.6993 12.7164 4.67561 19.2595 8.70792 23.2919C12.7156 27.2996 19.2587 27.3253 23.292 23.2919ZM10.0337 10.0337C11.4405 8.62694 13.224 7.82244 15.0625 7.61869V8.49988C15.0625 9.01763 15.4822 9.43738 16 9.43738C16.5177 9.43738 16.9375 9.01763 16.9375 8.49988V7.61869C18.7757 7.82256 20.5599 8.62731 21.9662 10.0337C23.3728 11.4402 24.1774 13.224 24.3812 15.0624H23.5C22.9822 15.0624 22.5625 15.4821 22.5625 15.9999C22.5625 16.5176 22.9822 16.9374 23.5 16.9374H24.3812C24.1774 18.7758 23.3728 20.5595 21.9662 21.9661C20.5597 23.3726 18.7759 24.1773 16.9375 24.3811V23.4999C16.9375 22.9821 16.5177 22.5624 16 22.5624C15.4822 22.5624 15.0625 22.9821 15.0625 23.4999V24.3811C13.2241 24.1772 11.4404 23.3727 10.0337 21.9661C8.62717 20.5595 7.82255 18.7758 7.6188 16.9374H8.49999C9.01774 16.9374 9.43749 16.5176 9.43749 15.9999C9.43749 15.4821 9.01774 15.0624 8.49999 15.0624H7.6188C7.82255 13.224 8.62717 11.4402 10.0337 10.0337Z" fill="black"/>
<path d="M15.3371 16.6629C15.5201 16.846 15.7601 16.9375 16 16.9375C16.2399 16.9375 16.4799 16.846 16.6629 16.6629L20.6404 12.6854C21.0065 12.3192 21.0065 11.7257 20.6404 11.3596C20.2743 10.9934 19.6807 10.9934 19.3146 11.3596L16 14.6742L12.6854 11.3596C12.3194 10.9935 11.7257 10.9935 11.3596 11.3596C10.9935 11.7257 10.9935 12.3193 11.3596 12.6854L15.3371 16.6629Z" fill="black"/>
</svg>
