<svg width="32" height="22" viewBox="0 0 32 22" fill="none" xmlns="http://www.w3.org/2000/svg">
<path d="M31.7361 10.8246L26.3581 5.26775C26.1815 5.08525 25.9384 4.98225 25.6844 4.98225H22.2477V0.9375C22.2477 0.41975 21.828 0 21.3102 0H3.89744C3.37969 0 2.95994 0.41975 2.95994 0.9375V3.75087H2.25031C1.73256 3.75087 1.31281 4.17062 1.31281 4.68837C1.31281 5.20613 1.73256 5.62587 2.25031 5.62587H2.95994V7.50175H0.9375C0.41975 7.50175 0 7.9215 0 8.43925C0 8.957 0.41975 9.37675 0.9375 9.37675H2.95994V17.9866C2.95994 18.5043 3.37969 18.9241 3.89744 18.9241H5.893C6.07475 19.5291 6.40431 20.0834 6.86356 20.5427C7.59494 21.2741 8.56738 21.6769 9.60169 21.6769C10.636 21.6769 11.6084 21.2741 12.3398 20.5427C12.8046 20.0779 13.1257 19.5233 13.3043 18.9344H22.2571C22.4358 19.5233 22.7569 20.0779 23.2216 20.5427C23.953 21.2741 24.9254 21.6769 25.9597 21.6769C26.9941 21.6769 27.9664 21.2741 28.6979 20.5427C29.1626 20.0779 29.4837 19.5233 29.6624 18.9344H31.0625C31.5802 18.9344 32 18.5146 32 17.9969V11.4766C32 11.2332 31.9054 10.9994 31.7361 10.8246ZM28.8505 10.5391H22.2214V6.85725H25.2871L28.8505 10.5391ZM4.83494 9.37669H9.7145C10.2323 9.37669 10.652 8.95694 10.652 8.43919C10.652 7.92144 10.2323 7.50169 9.7145 7.50169H4.83494V5.62581H10.4022C10.9199 5.62581 11.3397 5.20606 11.3397 4.68831C11.3397 4.17056 10.9199 3.75081 10.4022 3.75081H4.83494V1.87494H10.4022H20.3727L20.3464 17.0592H13.4003C13.2581 16.3285 12.9046 15.6311 12.3398 15.0662C11.6084 14.3348 10.636 13.932 9.60169 13.932C8.56738 13.932 7.595 14.3348 6.86356 15.0662C6.31356 15.6162 5.9495 16.3025 5.80269 17.0489H4.83494V9.37669ZM11.014 19.2169C10.6368 19.5941 10.1351 19.8019 9.60169 19.8019C9.06825 19.8019 8.56662 19.5941 8.18937 19.2169C7.81212 18.8396 7.60437 18.338 7.60437 17.8045C7.60437 17.2709 7.81212 16.7693 8.18937 16.3921C8.56662 16.0148 9.06825 15.8071 9.60169 15.8071C10.1351 15.8071 10.6368 16.0148 11.014 16.3921C11.7928 17.1709 11.7928 18.4381 11.014 19.2169ZM27.3719 19.2169C26.9947 19.5941 26.4931 19.8019 25.9596 19.8019C25.4262 19.8019 24.9246 19.5941 24.5473 19.2169C23.7686 18.4381 23.7686 17.1709 24.5473 16.3921C24.9246 16.0149 25.4262 15.8071 25.9596 15.8071C26.4931 15.8071 26.9947 16.0149 27.3719 16.3921C27.7492 16.7694 27.9569 17.271 27.9569 17.8046C27.9569 18.338 27.7492 18.8396 27.3719 19.2169ZM29.7582 17.0593C29.6161 16.3286 29.2626 15.6311 28.6978 15.0662C27.9664 14.3348 26.9939 13.9321 25.9596 13.9321C24.9253 13.9321 23.9529 14.3348 23.2215 15.0662C22.7235 15.5643 22.3908 16.1656 22.2214 16.8017V12.4141H30.125V17.0593H29.7582Z" fill="black"/>
</svg>
