<svg width="25" height="21" viewBox="0 0 25 21" fill="none" xmlns="http://www.w3.org/2000/svg">
<path d="M12.5714 20.8784C12.4457 20.8784 12.32 20.847 12.2073 20.7842C12.085 20.7161 9.17831 19.0866 6.22993 16.6314C4.48245 15.1763 3.08754 13.733 2.08403 12.3417C0.785445 10.5415 0.132413 8.8098 0.142948 7.19482C0.155279 5.3156 0.852394 3.54833 2.10603 2.21848C3.38083 0.866237 5.08208 0.121582 6.8965 0.121582C9.22186 0.121582 11.3479 1.37924 12.5714 3.37151C13.795 1.37928 15.921 0.121582 18.2464 0.121582C19.9606 0.121582 21.596 0.793487 22.8517 2.01355C24.2297 3.35243 25.0127 5.24421 24.9998 7.20372C24.9893 8.81589 24.324 10.5449 23.0225 12.3427C22.0159 13.7333 20.623 15.1759 18.8823 16.6306C15.9447 19.0856 13.0589 20.715 12.9375 20.7831C12.8243 20.8466 12.6978 20.8784 12.5714 20.8784Z" fill="#212121"/>
</svg>
