<svg width="25" height="22" viewBox="0 0 25 22" fill="none" xmlns="http://www.w3.org/2000/svg">
<path d="M18.1035 1.12158C19.6845 1.12158 21.1958 1.74101 22.3604 2.87256C23.6384 4.11438 24.3694 5.87441 24.3574 7.70068C24.3477 9.17591 23.7373 10.805 22.4746 12.5493C21.4986 13.8975 20.1372 15.3105 18.4189 16.7466C15.5157 19.1728 12.6603 20.7852 12.5498 20.8472C12.5134 20.8675 12.4715 20.8784 12.4287 20.8784C12.3858 20.8784 12.3437 20.8673 12.3076 20.8472C12.1918 20.7826 9.31836 19.1717 6.40723 16.7476C4.68225 15.3112 3.31916 13.8975 2.34668 12.5493C1.08741 10.8035 0.490374 9.17339 0.5 7.69775C0.511611 5.94107 1.16296 4.29599 2.32715 3.06104C3.51003 1.80644 5.08106 1.12158 6.75391 1.12158C8.89487 1.12166 10.8647 2.27999 12.0029 4.1333L12.4287 4.82666L12.8545 4.1333C13.9928 2.27998 15.9625 1.1216 18.1035 1.12158Z" stroke="black"/>
</svg>
