<svg width="55" height="55" viewBox="0 0 55 55" fill="none" xmlns="http://www.w3.org/2000/svg">
<path d="M16.7578 27.5C16.7578 28.6866 17.7197 29.6484 18.9062 29.6484H25.3516V36.0938C25.3516 37.2803 26.3134 38.2422 27.5 38.2422C28.6866 38.2422 29.6484 37.2803 29.6484 36.0938V29.6484H36.0938C37.2803 29.6484 38.2422 28.6866 38.2422 27.5C38.2422 26.3134 37.2803 25.3516 36.0938 25.3516H29.6484V18.9062C29.6484 17.7197 28.6866 16.7578 27.5 16.7578C26.3134 16.7578 25.3516 17.7197 25.3516 18.9062V25.3516H18.9062C17.7197 25.3516 16.7578 26.3134 16.7578 27.5Z" fill="black" fill-opacity="0.5"/>
<path d="M17.2311 6.63866L20.01 5.48753C21.1061 5.03335 21.6268 3.77662 21.1726 2.68038C20.7184 1.58414 19.4618 1.06325 18.3654 1.51775L15.5865 2.66889C14.4904 3.12307 13.9697 4.37979 14.4239 5.47603C14.8766 6.56862 16.1313 7.09391 17.2311 6.63866Z" fill="black" fill-opacity="0.5"/>
<path d="M27.5 0C26.3134 0 25.3516 0.961856 25.3516 2.14844C25.3516 3.33502 26.3134 4.29688 27.5 4.29688C40.3238 4.29688 50.7031 14.6747 50.7031 27.5C50.7031 40.3238 40.3253 50.7031 27.5 50.7031C14.6762 50.7031 4.29688 40.3253 4.29688 27.5C4.29688 26.3134 3.33502 25.3516 2.14844 25.3516C0.961856 25.3516 0 26.3134 0 27.5C0 42.6984 12.2995 55 27.5 55C42.6984 55 55 42.7005 55 27.5C55 12.3016 42.7005 0 27.5 0Z" fill="black" fill-opacity="0.5"/>
<path d="M10.0295 12.1564L12.1564 10.0296C12.9955 9.1905 12.9955 7.83011 12.1564 6.99114C11.3173 6.15218 9.95693 6.15207 9.11797 6.99114L6.99112 9.11799C6.15205 9.95706 6.15205 11.3175 6.99112 12.1564C7.82998 12.9953 9.19048 12.9955 10.0295 12.1564Z" fill="black" fill-opacity="0.5"/>
<path d="M2.68029 21.1728C3.7789 21.6278 5.03433 21.1038 5.48744 20.0101L6.63857 17.2311C7.09275 16.1349 6.57208 14.8782 5.47595 14.424C4.37949 13.9699 3.12298 14.4905 2.6688 15.5866L1.51766 18.3655C1.06348 19.4619 1.58416 20.7186 2.68029 21.1728Z" fill="black" fill-opacity="0.5"/>
</svg>
