<svg width="128" height="128" viewBox="0 0 128 128" fill="none" xmlns="http://www.w3.org/2000/svg">
<path d="M64 0C28.6537 0 0 28.6537 0 64C0 99.3463 28.6537 128 64 128C99.3463 128 128 99.3463 128 64C128 28.6537 99.3463 0 64 0ZM77.8611 94.0761L71.8837 100.034L35.9672 64L53.9254 45.9831L71.8837 27.9662L77.8611 33.9239L47.883 64L77.8611 94.0761Z" fill="black"/>
<path d="M64 0C28.6537 0 0 28.6537 0 64C0 99.3463 28.6537 128 64 128C99.3463 128 128 99.3463 128 64C128 28.6537 99.3463 0 64 0ZM77.8611 94.0761L71.8837 100.034L35.9672 64L53.9254 45.9831L71.8837 27.9662L77.8611 33.9239L47.883 64L77.8611 94.0761Z" fill="black"/>
</svg>
