<svg width="94" height="15" viewBox="0 0 94 15" fill="none" xmlns="http://www.w3.org/2000/svg">
<path d="M19.417 0.420837L22.0101 11.4233L24.6634 0.420837H28.6439L28.8243 0.601664V14.5049L28.6439 14.6857H26.2322L26.0518 14.5049V3.20212L23.3502 14.5781C23.1634 14.7266 21.1382 14.747 20.8054 14.6868C20.611 14.6512 20.553 14.5888 20.4736 14.4155L17.8514 3.4443L17.9771 14.2702L17.7902 14.6868H15.2572L15.0768 14.5059V0.60274L15.2572 0.421914H19.4181L19.417 0.420837Z" fill="black"/>
<path d="M68.3831 2.95994H60.9655L60.8108 3.14077C60.8076 3.19028 60.9053 3.23118 60.9053 3.26132V5.86071H67.5992L67.7796 6.04153V8.39874H60.9053V12.1466H68.6236V14.6857H58.0104V0.420837H68.2016L68.382 0.601664V2.95887L68.3831 2.95994Z" fill="black"/>
<path d="M90.8764 4.77359C90.5704 4.22465 90.5822 3.73276 90.0968 3.25809C89.1476 2.33135 86.3301 2.25063 85.5752 3.4486C85.1092 4.18698 85.2799 5.07497 86.0734 5.47429C88.8534 6.87462 93.9152 5.9199 94 10.4406C94.1031 15.9698 84.6142 16.3669 82.7544 12.1907C82.5923 11.828 82.0758 10.3943 82.5729 10.2307H85.1328C85.34 11.1079 85.5441 11.8549 86.4407 12.2435C87.7388 12.8064 91.205 12.7784 91.1899 10.7559C91.1835 9.92823 90.6176 9.60425 89.9358 9.34377C87.5219 8.42134 83.0465 8.68397 82.6298 5.30315C81.8063 -1.37667 92.2369 -1.50475 93.4169 3.55732C93.49 3.86946 93.6564 4.57447 93.4116 4.77251H90.8785L90.8764 4.77359Z" fill="black"/>
<path d="M31.5989 0.420837H34.4337L34.6141 0.601664V10.1521C34.6141 10.2458 34.9158 11.0735 34.991 11.2252C35.7458 12.7623 38.82 12.7364 39.6082 11.1682C39.6672 11.0509 39.9206 10.3362 39.9206 10.2727V0.60274L40.101 0.421914H42.7543L42.9347 0.60274V10.6375C42.9347 11.1101 42.4129 12.4243 42.1412 12.8645C40.3222 15.7997 33.6949 15.7147 32.1777 12.4749C32.037 12.1735 31.5978 10.7785 31.5978 10.517V0.420837H31.5989Z" fill="black"/>
<path d="M10.3114 14.6868L9.27415 11.7979L3.96543 11.8571L2.95394 14.6868H0L5.06068 0.476823C5.5632 0.441304 8.17676 0.288462 8.384 0.540328L13.3352 14.4414L13.2063 14.6879H10.3114V14.6868ZM8.44198 9.24691L6.69281 3.80489L4.82338 9.24691H8.44198Z" fill="black"/>
<path d="M81.2876 2.95994H77.0666V14.5059L76.8862 14.6868H74.233L74.0515 14.5059V2.95994H69.8305V0.420837H81.1072L81.2876 0.60274V2.95994Z" fill="black"/>
<path d="M48.7245 0.420837V12.0271H55.8403V14.5059L55.66 14.6868H45.8296V0.420837H48.7245Z" fill="black"/>
</svg>
