<svg width="46" height="61" viewBox="0 0 46 61" fill="none" xmlns="http://www.w3.org/2000/svg">
<path d="M29.3906 0.000658476L27.8658 1.79103C26.6046 3.50291 25.7024 5.54671 25.5843 7.70005C27.3015 7.49894 29.0866 7.03459 30.6097 6.19418C31.4457 5.7331 32.1636 4.95155 33.0513 4.59185V16.2889L29.6816 13.9949C28.338 13.4047 26.9232 12.9011 25.4372 12.8831V21.0272C32.411 14.0031 44.9713 17.3435 45.9172 27.7832C47.1752 41.6614 33.4313 48.8065 25.5795 57.3725C24.5673 58.4778 23.7895 59.7155 23.0215 61.0007C22.2987 59.7924 21.5517 58.571 20.609 57.5197C17.4399 53.9831 12.9982 50.7735 9.54602 47.3857C3.97085 41.9116 -1.63504 34.4117 0.442711 26.0305C2.80019 16.5244 14.0087 14.6588 20.6058 21.0256V13.1039C20.6058 12.9518 20.2646 12.8749 20.1013 12.8749C17.7972 12.8848 14.974 14.7389 13.2844 16.2153L13.0127 16.0453L12.9965 4.80931L13.2827 4.66215C15.388 6.32662 17.7519 7.50385 20.4587 7.69842C20.3617 4.63272 18.6994 2.10495 16.6524 -0.000976562H29.3906V0.000658476ZM23.5341 9.77328C23.4435 7.22099 23.8089 4.60656 25.0815 2.37637L24.9246 2.07389H21.2639L21.065 2.41888C21.2962 2.96498 21.6697 3.59774 21.8476 4.14875C21.9834 4.57059 22.5089 6.4329 22.5089 6.73702V9.77165H19.8006C19.4917 9.77165 18.0123 9.42502 17.6129 9.31874C16.7414 9.08657 15.9313 8.60423 15.042 8.43909V12.288C15.9959 12.0493 16.7802 11.5359 17.7487 11.2497C18.1271 11.1385 19.2023 10.8083 19.5079 10.8083H22.5089V22.7277C22.5089 22.7931 22.8453 23.1773 22.8097 23.3882C23.0668 23.5632 23.5341 23.0825 23.5341 22.8748V10.8083H26.5351C26.7792 10.8083 28.3089 11.2219 28.6516 11.3331C29.3502 11.5587 30.1069 11.9397 30.71 12.3648L30.9994 12.2144V8.43909C30.0923 8.59115 29.2806 9.04405 28.3962 9.28604C27.9596 9.4054 26.5884 9.77165 26.2408 9.77165H23.5324L23.5341 9.77328ZM31.6494 48.7755C36.5423 44.2137 42.672 38.6775 43.5937 31.6092C44.9972 20.8376 34.6472 15.6676 26.8261 22.798C26.008 23.5436 23.8461 26.4261 22.897 26.3199C22.2712 26.2496 19.8038 23.2967 19.0746 22.6508C11.1613 15.6529 0.969829 21.0485 2.46872 31.7433C3.70567 40.5676 13.8276 48.1738 20.0253 53.8196C21.0456 54.7483 22.0125 55.7669 23.0247 56.7054C25.7881 53.9422 28.7956 51.4373 31.651 48.7738L31.6494 48.7755Z" fill="#F9F9F9"/>
<path d="M18.9953 46.9377L20.7562 37.533C20.1094 36.7809 19.3591 36.4441 18.8207 35.4908C16.2077 30.8653 21.597 25.921 25.7783 28.9C28.7842 31.0403 28.4107 35.4156 25.3628 37.3155L25.2836 37.5395L27.0412 46.5829C27.0735 46.7056 26.8924 46.9377 26.8294 46.9377H18.9953Z" fill="#F9F9F9"/>
</svg>
